<?xml version="1.0" encoding="utf-8"?>
<!-- Generator: Adobe Illustrator 21.1.0, SVG Export Plug-In . SVG Version: 6.00 Build 0)  -->
<svg version="1.1" id="Layer_1" xmlns="http://www.w3.org/2000/svg" xmlns:xlink="http://www.w3.org/1999/xlink" x="0px" y="0px"
	 viewBox="0 0 595.3 841.9" style="enable-background:new 0 0 595.3 841.9;" xml:space="preserve">
<style type="text/css">
	.st0{fill:url(#SVGID_1_);}
	.st1{fill:url(#SVGID_2_);}
</style>
<g>
	<linearGradient id="SVGID_1_" gradientUnits="userSpaceOnUse" x1="120.042" y1="252.6503" x2="471.8968" y2="504.7255">
		<stop  offset="0" style="stop-color:#2A2771"/>
		<stop  offset="1" style="stop-color:#4FA0CA"/>
	</linearGradient>
	<path class="st0" d="M474,260.7L353.3,191c-29.9-17.3-67.1-17.3-97,0l-117.5,67.8H72.8l10.9,27l51.7,128.8v59.3
		c0,24.9,13.2,47.8,34.8,60.3l21.7,12.5c5.9-19.8,25.4-33.8,47.6-31.2c19.1,2.2,35.1,17.1,38.4,36c2.6,14.9-2.2,28.6-11.3,38.4
		l4.6,2.6c21.5,12.4,48,12.4,69.6,0l6.2-3.5c-3.7-1-7.5-2.2-11.2-3.5c-16.3-5.8-31.2-14.8-44.6-26.9l29-34.7
		c10.2,8.3,20.6,14.8,31.4,19.7c10.8,4.9,22.5,7.3,35.2,7.3c10.2,0,18.1-1.9,23.8-5.6c5.6-3.7,8.4-8.9,8.4-15.5v-0.6
		c0-3.2-0.6-6-1.8-8.4c-1.1-2.4-3.4-4.7-6.7-6.9c-3.3-2.1-7.9-4.3-13.7-6.4c-5.8-2.1-13.5-4.3-22.8-6.7c-11.3-2.8-21.5-5.8-30.7-9.2
		c-9.2-3.4-16.9-7.6-23.3-12.6c-6.4-5-11.3-11.2-14.8-18.6c-3.5-7.4-5.3-16.7-5.3-27.7V432c0-10.2,1.9-19.4,5.7-27.5
		c3.8-8.2,9.1-15.2,16-21.2c6.9-5.9,15-10.5,24.6-13.7c9.5-3.2,20-4.8,31.5-4.8c16.3,0,31.4,2.4,45.1,7.3
		c13.7,4.9,26.3,11.9,37.8,21l-25.5,37c-10-6.8-19.7-12.2-29.3-16.1c-9.5-3.9-19.1-5.9-28.7-5.9c-9.5,0-16.7,1.9-21.5,5.6
		c-4.8,3.7-7.2,8.3-7.2,13.9v0.6c0,3.6,0.7,6.7,2.1,9.4c1.4,2.6,3.9,5,7.5,7.2c3.6,2.1,8.5,4.1,14.8,6c6.3,1.9,14.2,4.2,23.8,6.7
		c11.3,3,21.3,6.3,30.2,10c8.9,3.7,16.3,8.2,22.4,13.4c6.1,5.2,10.7,11.3,13.7,18.3c1.5,3.4,2.6,7.2,3.4,11.2
		c6.7-10.8,10.4-23.4,10.4-36.6V357.3c0-24.9-13.3-47.8-34.8-60.3l-101-58.3c-21.5-12.4-48.1-12.4-69.6,0l-89.6,51.7l-7-18.8
		l-0.5-1.3l96-55.4c21.4-12.4,48-12.4,69.4,0l120.7,69.7c21.4,12.4,34.7,35.4,34.7,60.1v139.4h27.6V344.7
		C522.5,310.2,503.9,278,474,260.7z M214.4,435.6l58.3-157.1h52.9l-90.2,224.6h-43.3L102,278.5h43.9h10.2l0.7,1.8L214.4,435.6z"/>
	<linearGradient id="SVGID_2_" gradientUnits="userSpaceOnUse" x1="13.5064" y1="401.3563" x2="365.3612" y2="653.4314">
		<stop  offset="0" style="stop-color:#2A2771"/>
		<stop  offset="1" style="stop-color:#4FA0CA"/>
	</linearGradient>
	<path class="st1" d="M240,530.5c-20.8-3.9-38.7,14-34.8,34.8c2.2,11.6,11.6,21,23.2,23.2c20.8,3.9,38.7-14,34.8-34.8
		C261.1,542.1,251.7,532.7,240,530.5z"/>
</g>
</svg>
